<svg width="24" height="24" viewBox="0 0 24 24" fill="none" xmlns="http://www.w3.org/2000/svg">
<path d="M22 8.60776V16.7498C22.0001 17.5799 21.6824 18.3786 21.1123 18.982C20.5422 19.5854 19.7628 19.9478 18.934 19.9948L18.75 19.9998H5.25C4.41986 19.9998 3.62117 19.6822 3.01777 19.1121C2.41437 18.542 2.052 17.7626 2.005 16.9338L2 16.7498V8.60776L11.652 13.6638C11.7594 13.72 11.8788 13.7494 12 13.7494C12.1212 13.7494 12.2406 13.72 12.348 13.6638L22 8.60776ZM5.25 3.99976H18.75C19.5556 3.99966 20.3325 4.29875 20.93 4.83902C21.5276 5.37929 21.9032 6.12224 21.984 6.92376L12 12.1538L2.016 6.92376C2.09352 6.15407 2.44305 5.43727 3.00175 4.90222C3.56045 4.36716 4.29168 4.04894 5.064 4.00476L5.25 3.99976Z" fill="#120E0E"/>
</svg>
