<svg width="44" height="44" viewBox="0 0 44 44" fill="none" xmlns="http://www.w3.org/2000/svg">
<path d="M23.8851 3.66827C25.2229 3.66314 26.5608 3.67658 27.8982 3.7086L28.2539 3.72144C28.6646 3.7361 29.0697 3.75444 29.5592 3.77644C31.5099 3.8681 32.8409 4.17611 34.0087 4.62894C35.2187 5.09461 36.2381 5.72527 37.2574 6.7446C38.1894 7.66055 38.9108 8.76851 39.3712 9.99144C39.8241 11.1593 40.1321 12.4921 40.2237 14.4428C40.2457 14.9304 40.2641 15.3374 40.2787 15.7481L40.2897 16.1038C40.3223 17.4406 40.3364 18.7779 40.3319 20.1151L40.3337 21.4828V23.8844C40.3383 25.2223 40.3242 26.5601 40.2916 27.8976L40.2806 28.2533C40.2659 28.6639 40.2476 29.0691 40.2256 29.5586C40.1339 31.5093 39.8222 32.8403 39.3712 34.0081C38.9123 35.2323 38.1908 36.3412 37.2574 37.2568C36.3407 38.1887 35.2321 38.91 34.0087 39.3706C32.8409 39.8234 31.5099 40.1314 29.5592 40.2231C29.0697 40.2451 28.6646 40.2634 28.2539 40.2781L27.8982 40.2891C26.5608 40.3217 25.2229 40.3358 23.8851 40.3313L22.5174 40.3331H20.1176C18.7797 40.3376 17.4419 40.3236 16.1044 40.2909L15.7487 40.2799C15.3135 40.2642 14.8784 40.2458 14.4434 40.2249C12.4927 40.1333 11.1617 39.8216 9.99207 39.3706C8.76866 38.9111 7.66051 38.1896 6.74524 37.2568C5.81216 36.3406 5.09015 35.232 4.62957 34.0081C4.17674 32.8403 3.86874 31.5093 3.77707 29.5586C3.75666 29.1236 3.73832 28.6885 3.72207 28.2533L3.71291 27.8976C3.67911 26.5602 3.66383 25.2223 3.66707 23.8844V20.1151C3.66196 18.7779 3.6754 17.4406 3.70741 16.1038L3.72024 15.7481C3.73491 15.3374 3.75324 14.9304 3.77524 14.4428C3.86691 12.4903 4.17491 11.1611 4.62774 9.99144C5.08859 8.76791 5.81201 7.66025 6.74707 6.74644C7.66171 5.81282 8.76917 5.09015 9.99207 4.62894C11.1617 4.17611 12.4909 3.8681 14.4434 3.77644L15.7487 3.72144L16.1044 3.71227C17.4412 3.67849 18.7785 3.66321 20.1157 3.66644L23.8851 3.66827ZM22.0004 12.8349C20.7858 12.8178 19.58 13.0421 18.4529 13.4951C17.3258 13.948 16.2999 14.6204 15.435 15.4732C14.57 16.326 13.8831 17.3423 13.4143 18.4628C12.9455 19.5834 12.7041 20.786 12.7041 22.0007C12.7041 23.2154 12.9455 24.418 13.4143 25.5385C13.8831 26.6591 14.57 27.6754 15.435 28.5282C16.2999 29.381 17.3258 30.0534 18.4529 30.5063C19.58 30.9592 20.7858 31.1836 22.0004 31.1664C24.4316 31.1664 26.7631 30.2007 28.4822 28.4816C30.2013 26.7625 31.1671 24.4309 31.1671 21.9998C31.1671 19.5686 30.2013 17.237 28.4822 15.518C26.7631 13.7989 24.4316 12.8349 22.0004 12.8349ZM22.0004 16.5016C22.731 16.4881 23.457 16.6204 24.1359 16.8907C24.8148 17.1609 25.433 17.5637 25.9545 18.0756C26.476 18.5875 26.8902 19.1981 27.1731 19.8719C27.4559 20.5457 27.6016 21.269 27.6017 21.9998C27.6019 22.7305 27.4564 23.4539 27.1738 24.1278C26.8912 24.8016 26.4771 25.4124 25.9558 25.9245C25.4345 26.4365 24.8164 26.8395 24.1376 27.11C23.4588 27.3805 22.7328 27.513 22.0022 27.4998C20.5436 27.4998 19.1446 26.9203 18.1132 25.8889C17.0817 24.8574 16.5022 23.4585 16.5022 21.9998C16.5022 20.5411 17.0817 19.1421 18.1132 18.1107C19.1446 17.0792 20.5436 16.4998 22.0022 16.4998L22.0004 16.5016ZM31.6254 10.0849C31.034 10.1086 30.4746 10.3602 30.0645 10.7871C29.6544 11.2139 29.4254 11.7829 29.4254 12.3748C29.4254 12.9667 29.6544 13.5357 30.0645 13.9625C30.4746 14.3893 31.034 14.6409 31.6254 14.6646C32.2332 14.6646 32.8161 14.4232 33.2459 13.9934C33.6756 13.5636 33.9171 12.9807 33.9171 12.3729C33.9171 11.7652 33.6756 11.1823 33.2459 10.7525C32.8161 10.3227 32.2332 10.0813 31.6254 10.0813V10.0849Z" fill="#C1F83C"/>
</svg>
