<svg width="24" height="24" viewBox="0 0 24 24" fill="none" xmlns="http://www.w3.org/2000/svg">
<path d="M12.001 2.00024C6.48098 2.00024 2.00098 6.48024 2.00098 12.0002C2.00098 17.5202 6.48098 22.0002 12.001 22.0002C17.521 22.0002 22.001 17.5202 22.001 12.0002C22.001 6.48024 17.521 2.00024 12.001 2.00024ZM16.641 8.80024C16.491 10.3802 15.841 14.2202 15.511 15.9902C15.371 16.7402 15.091 16.9902 14.831 17.0202C14.251 17.0702 13.811 16.6402 13.251 16.2702C12.371 15.6902 11.871 15.3302 11.021 14.7702C10.031 14.1202 10.671 13.7602 11.241 13.1802C11.391 13.0302 13.951 10.7002 14.001 10.4902C14.0079 10.4584 14.007 10.4254 13.9983 10.394C13.9896 10.3627 13.9733 10.3339 13.951 10.3102C13.891 10.2602 13.811 10.2802 13.741 10.2902C13.651 10.3102 12.251 11.2402 9.52098 13.0802C9.12098 13.3502 8.76098 13.4902 8.44098 13.4802C8.08098 13.4702 7.40098 13.2802 6.89098 13.1102C6.26098 12.9102 5.77098 12.8002 5.81098 12.4502C5.83098 12.2702 6.08098 12.0902 6.55098 11.9002C9.47098 10.6302 11.411 9.79024 12.381 9.39024C15.161 8.23024 15.731 8.03024 16.111 8.03024C16.191 8.03024 16.381 8.05024 16.501 8.15024C16.601 8.23024 16.631 8.34024 16.641 8.42024C16.631 8.48024 16.651 8.66024 16.641 8.80024Z" fill="#120E0E"/>
</svg>
