<svg width="24" height="24" viewBox="0 0 24 24" fill="none" xmlns="http://www.w3.org/2000/svg">
<path d="M12.001 2.00024C17.524 2.00024 22.001 6.47724 22.001 12.0002C22.001 17.5232 17.524 22.0002 12.001 22.0002C10.2338 22.0031 8.49765 21.5354 6.97099 20.6452L2.00499 22.0002L3.35699 17.0322C2.46608 15.5051 1.99804 13.7682 2.00099 12.0002C2.00099 6.47724 6.47799 2.00024 12.001 2.00024ZM8.59299 7.30024L8.39299 7.30824C8.26351 7.31613 8.13697 7.35015 8.02099 7.40824C7.91251 7.46967 7.81349 7.54647 7.72699 7.63624C7.60699 7.74924 7.53899 7.84724 7.46599 7.94224C7.09611 8.42315 6.89696 9.01356 6.89999 9.62024C6.90199 10.1102 7.02999 10.5872 7.22999 11.0332C7.63899 11.9352 8.31199 12.8902 9.19999 13.7752C9.41399 13.9882 9.62399 14.2022 9.84999 14.4012C10.9534 15.3727 12.2682 16.0733 13.69 16.4472L14.258 16.5342C14.443 16.5442 14.628 16.5302 14.814 16.5212C15.1052 16.5062 15.3896 16.4274 15.647 16.2902C15.7779 16.2228 15.9057 16.1494 16.03 16.0702C16.03 16.0702 16.073 16.0422 16.155 15.9802C16.29 15.8802 16.373 15.8092 16.485 15.6922C16.568 15.6062 16.64 15.5052 16.695 15.3902C16.773 15.2272 16.851 14.9162 16.883 14.6572C16.907 14.4592 16.9 14.3512 16.897 14.2842C16.893 14.1772 16.804 14.0662 16.707 14.0192L16.125 13.7582C16.125 13.7582 15.255 13.3792 14.723 13.1372C14.6673 13.1129 14.6077 13.099 14.547 13.0962C14.4786 13.0892 14.4094 13.0969 14.3442 13.1188C14.279 13.1407 14.2193 13.1763 14.169 13.2232C14.164 13.2212 14.097 13.2782 13.374 14.1542C13.3325 14.21 13.2753 14.2521 13.2098 14.2753C13.1443 14.2985 13.0733 14.3016 13.006 14.2842C12.9408 14.2668 12.877 14.2447 12.815 14.2182C12.691 14.1662 12.648 14.1462 12.563 14.1102C11.9891 13.8598 11.4577 13.5214 10.988 13.1072C10.862 12.9972 10.745 12.8772 10.625 12.7612C10.2316 12.3845 9.88871 11.9583 9.60499 11.4932L9.54599 11.3982C9.50361 11.3344 9.46935 11.2655 9.44399 11.1932C9.40599 11.0462 9.50499 10.9282 9.50499 10.9282C9.50499 10.9282 9.74799 10.6622 9.86099 10.5182C9.97099 10.3782 10.064 10.2422 10.124 10.1452C10.242 9.95524 10.279 9.76024 10.217 9.60924C9.93699 8.92524 9.64699 8.24424 9.34899 7.56824C9.28999 7.43424 9.11499 7.33824 8.95599 7.31924C8.90199 7.31324 8.84799 7.30724 8.79399 7.30324C8.6597 7.29657 8.52513 7.29791 8.39099 7.30724L8.59199 7.29924L8.59299 7.30024Z" fill="#120E0E"/>
</svg>
